<?xml version="1.0" encoding="utf-8"?>
<!-- License: Apache. Made by UXAspects: https://github.com/UXAspects/UXAspects -->
<svg height="800px" width="800px" version="1.1" xmlns="http://www.w3.org/2000/svg" xmlns:xlink="http://www.w3.org/1999/xlink" 
    viewBox="0 0 24 24" enable-background="new 0 0 24 24" xml:space="preserve">
  <defs>
    <linearGradient id="gradiente" x1="0%" y1="0%" x2="100%" y2="100%">
      <stop offset="0%" style="stop-color:#4c03b9; stop-opacity:1"/>
      <stop offset="100%" style="stop-color:#036c29; stop-opacity:1"/>
    </linearGradient>
  </defs>
  <g id="task">
    <path d="M4,23.4l-3.7-3.7l1.4-1.4L4,20.6l4.3-4.3l1.4,1.4L4,23.4z M24,21H12v-2h12V21z M4,15.4l-3.7-3.7l1.4-1.4L4,12.6l4.3-4.3
      l1.4,1.4L4,15.4z M24,13H12v-2h12V13z M4,7.4L0.3,3.7l1.4-1.4L4,4.6l4.3-4.3l1.4,1.4L4,7.4z M24,5H12V3h12V5z" 
      style="fill: url(#gradiente);"/>
  </g>
</svg>

